<svg xmlns="http://www.w3.org/2000/svg" viewBox="0 0 1800 760" width="1800" height="760" role="img" aria-label="Watercolour: a Byzantine monastery on the sheer cliffs of Mount Athos above the Aegean"><defs><filter id="wcBig" x="-25%" y="-25%" width="150%" height="150%" color-interpolation-filters="sRGB"><feTurbulence type="fractalNoise" baseFrequency="0.008 0.011" numOctaves="4" seed="304" result="n"/><feDisplacementMap in="SourceGraphic" in2="n" scale="34" xChannelSelector="R" yChannelSelector="G"/></filter><filter id="wcMid" x="-25%" y="-25%" width="150%" height="150%" color-interpolation-filters="sRGB"><feTurbulence type="fractalNoise" baseFrequency="0.017 0.021" numOctaves="4" seed="305" result="n"/><feDisplacementMap in="SourceGraphic" in2="n" scale="18" xChannelSelector="R" yChannelSelector="G"/></filter><filter id="wcFine" x="-25%" y="-25%" width="150%" height="150%" color-interpolation-filters="sRGB"><feTurbulence type="fractalNoise" baseFrequency="0.038 0.044" numOctaves="3" seed="306" result="n"/><feDisplacementMap in="SourceGraphic" in2="n" scale="7" xChannelSelector="R" yChannelSelector="G"/></filter><filter id="wcHair" x="-25%" y="-25%" width="150%" height="150%" color-interpolation-filters="sRGB"><feTurbulence type="fractalNoise" baseFrequency="0.070 0.080" numOctaves="2" seed="307" result="n"/><feDisplacementMap in="SourceGraphic" in2="n" scale="2.5" xChannelSelector="R" yChannelSelector="G"/></filter><filter id="grain" x="0" y="0" width="100%" height="100%"><feTurbulence type="fractalNoise" baseFrequency="0.9" numOctaves="4" seed="312"/><feColorMatrix type="saturate" values="0"/></filter><filter id="soft" x="-30%" y="-30%" width="160%" height="160%"><feGaussianBlur stdDeviation="14"/></filter><linearGradient id="gSky" x1="0" y1="0" x2="0" y2="1"><stop offset="0" stop-color="#2f9fd4"/><stop offset=".38" stop-color="#9ad9ef"/><stop offset=".72" stop-color="#e4f2f2"/><stop offset="1" stop-color="#ffdcab"/></linearGradient><linearGradient id="gSea" x1="0" y1="0" x2="0" y2="1"><stop offset="0" stop-color="#6ccdd8"/><stop offset=".26" stop-color="#1f9ab6"/><stop offset="1" stop-color="#0b5c7e"/></linearGradient><linearGradient id="gLand" x1="0" y1="0" x2="0" y2="1"><stop offset="0" stop-color="#f9e3ad"/><stop offset=".45" stop-color="#e2b978"/><stop offset="1" stop-color="#8f6a38"/></linearGradient><linearGradient id="gMarble" x1="0" y1="0" x2="1" y2="1"><stop offset="0" stop-color="#c9b795"/><stop offset=".45" stop-color="#fdf8ec"/><stop offset="1" stop-color="#fffdf7"/></linearGradient><linearGradient id="gCella" x1="0" y1="0" x2="0" y2="1"><stop offset="0" stop-color="#5d4a35"/><stop offset=".55" stop-color="#876f50"/><stop offset="1" stop-color="#b59672"/></linearGradient><radialGradient id="gSun"><stop offset="0" stop-color="#ffffff" stop-opacity=".95"/><stop offset=".35" stop-color="#fff2c8" stop-opacity=".7"/><stop offset="1" stop-color="#ffdca0" stop-opacity="0"/></radialGradient></defs><rect width="1800" height="760" fill="#fdfaf2"/><rect x="-40" y="-40" width="1880" height="484" fill="url(#gSky)"/><circle cx="470" cy="120" r="270" fill="url(#gSun)"/><ellipse cx="240" cy="210" rx="240" ry="26" fill="#ffffff" opacity="0.85" filter="url(#wcBig)" transform="rotate(-4 240 210)"/><ellipse cx="240" cy="241.2" rx="144" ry="13" fill="#f4b9a6" opacity="0.14" filter="url(#wcBig)" transform="rotate(-4 240 241.2)"/><ellipse cx="860" cy="92" rx="250" ry="26" fill="#ffffff" opacity="0.85" filter="url(#wcBig)" transform="rotate(3 860 92)"/><ellipse cx="860" cy="123.2" rx="150" ry="13" fill="#f4b9a6" opacity="0.14" filter="url(#wcBig)" transform="rotate(3 860 123.2)"/><ellipse cx="1300" cy="62" rx="230" ry="22" fill="#ffffff" opacity="0.85" filter="url(#wcBig)" transform="rotate(-3 1300 62)"/><ellipse cx="1300" cy="88.4" rx="138" ry="11" fill="#f4b9a6" opacity="0.14" filter="url(#wcBig)" transform="rotate(-3 1300 88.4)"/><ellipse cx="700" cy="268" rx="280" ry="20" fill="#ffffff" opacity="0.85" filter="url(#wcBig)" transform="rotate(2 700 268)"/><ellipse cx="700" cy="292" rx="168" ry="10" fill="#f4b9a6" opacity="0.14" filter="url(#wcBig)" transform="rotate(2 700 292)"/><path d="M120,434 L120,404 L280,296 L400,216 L512,108 L566,152 L688,268 L820,360 L960,410 L960,434 Z" fill="#8ba4c8" opacity="0.6" filter="url(#wcMid)"/><path d="M512,108 L566,152 L688,268 L820,360 L590,292 Z" fill="#546f9c" opacity="0.26" filter="url(#wcMid)"/><path d="M462,172 L512,108 L560,170 L512,150 Z" fill="#fbf8f0" opacity="0.95" filter="url(#wcFine)"/><rect x="-40" y="420" width="1880" height="386" fill="url(#gSea)"/><path d="M91.68,439.16 q349.37,5.88 698.74,-1.83" fill="none" stroke="#0b5c7e" stroke-width="3.84" stroke-linecap="round" opacity="0.1" filter="url(#wcHair)"/><path d="M757.75,447.45 q306.92,5.45 613.84,1.93" fill="none" stroke="#0b5c7e" stroke-width="4.14" stroke-linecap="round" opacity="0.21" filter="url(#wcHair)"/><path d="M240.84,456.04 q271.05,4.52 542.1,-1.78" fill="none" stroke="#0b5c7e" stroke-width="1.7" stroke-linecap="round" opacity="0.25" filter="url(#wcHair)"/><path d="M576.34,468.98 q279.71,4.07 559.42,0.06" fill="none" stroke="#0b5c7e" stroke-width="2.66" stroke-linecap="round" opacity="0.14" filter="url(#wcHair)"/><path d="M618.1,477.1 q319.76,5.01 639.53,0.45" fill="none" stroke="#0b5c7e" stroke-width="3.69" stroke-linecap="round" opacity="0.08" filter="url(#wcHair)"/><path d="M217.76,487.02 q461.3,4.9 922.59,1.34" fill="none" stroke="#0b5c7e" stroke-width="2.37" stroke-linecap="round" opacity="0.09" filter="url(#wcHair)"/><path d="M1347.61,495.08 q168.49,2.41 336.98,-1" fill="none" stroke="#0b5c7e" stroke-width="3.06" stroke-linecap="round" opacity="0.06" filter="url(#wcHair)"/><path d="M705.46,500.67 q400.19,5.71 800.38,0.61" fill="none" stroke="#0b5c7e" stroke-width="2.73" stroke-linecap="round" opacity="0.08" filter="url(#wcHair)"/><path d="M503,514.79 q584.19,3.09 1168.39,-0.93" fill="none" stroke="#0b5c7e" stroke-width="5.11" stroke-linecap="round" opacity="0.27" filter="url(#wcHair)"/><path d="M211.37,523.42 q589.05,2.16 1178.09,-1.13" fill="none" stroke="#0b5c7e" stroke-width="3.43" stroke-linecap="round" opacity="0.25" filter="url(#wcHair)"/><path d="M691.02,534.32 q502.18,5.94 1004.36,-0.3" fill="none" stroke="#0b5c7e" stroke-width="3.36" stroke-linecap="round" opacity="0.06" filter="url(#wcHair)"/><path d="M584.37,539.87 q578.43,5.57 1156.85,1.17" fill="none" stroke="#0b5c7e" stroke-width="2.52" stroke-linecap="round" opacity="0.16" filter="url(#wcHair)"/><path d="M165.94,552.05 q560.87,4.15 1121.74,0.92" fill="none" stroke="#0b5c7e" stroke-width="4.66" stroke-linecap="round" opacity="0.21" filter="url(#wcHair)"/><path d="M232.9,561 q364.12,4.73 728.25,-1" fill="none" stroke="#0b5c7e" stroke-width="2.62" stroke-linecap="round" opacity="0.07" filter="url(#wcHair)"/><path d="M558.04,565.35 q453.61,2.9 907.22,-0.43" fill="none" stroke="#0b5c7e" stroke-width="4.83" stroke-linecap="round" opacity="0.2" filter="url(#wcHair)"/><path d="M199.18,577.74 q537.29,2.58 1074.58,-1.37" fill="none" stroke="#0b5c7e" stroke-width="4.35" stroke-linecap="round" opacity="0.26" filter="url(#wcHair)"/><path d="M835.9,587.52 q212.7,2.31 425.39,1.94" fill="none" stroke="#0b5c7e" stroke-width="1.96" stroke-linecap="round" opacity="0.09" filter="url(#wcHair)"/><path d="M151.92,593.5 q200.28,6.44 400.56,0.88" fill="none" stroke="#0b5c7e" stroke-width="1.73" stroke-linecap="round" opacity="0.1" filter="url(#wcHair)"/><path d="M633.65,606.55 q449,4.02 898,-1.15" fill="none" stroke="#0b5c7e" stroke-width="4.84" stroke-linecap="round" opacity="0.15" filter="url(#wcHair)"/><path d="M326.55,613.89 q541.33,2.4 1082.65,-0.9" fill="none" stroke="#0b5c7e" stroke-width="2.19" stroke-linecap="round" opacity="0.05" filter="url(#wcHair)"/><path d="M135.63,621.05 q451.07,6.25 902.14,-1.79" fill="none" stroke="#0b5c7e" stroke-width="3.21" stroke-linecap="round" opacity="0.24" filter="url(#wcHair)"/><path d="M448.69,634.14 q459.82,3.64 919.64,-0.87" fill="none" stroke="#0b5c7e" stroke-width="5.39" stroke-linecap="round" opacity="0.07" filter="url(#wcHair)"/><path d="M415.33,640 q200.71,1.8 401.41,-0.32" fill="none" stroke="#0b5c7e" stroke-width="4.89" stroke-linecap="round" opacity="0.26" filter="url(#wcHair)"/><path d="M382.1,652.7 q217.68,3.34 435.37,1.56" fill="none" stroke="#0b5c7e" stroke-width="4" stroke-linecap="round" opacity="0.18" filter="url(#wcHair)"/><path d="M217.39,660.88 q594.8,2.46 1189.6,0.83" fill="none" stroke="#0b5c7e" stroke-width="5.19" stroke-linecap="round" opacity="0.07" filter="url(#wcHair)"/><path d="M36.39,668.78 q558.36,2 1116.72,0.23" fill="none" stroke="#0b5c7e" stroke-width="5.04" stroke-linecap="round" opacity="0.14" filter="url(#wcHair)"/><path d="M271.93,676.74 q538.3,5.67 1076.6,0.75" fill="none" stroke="#0b5c7e" stroke-width="5.08" stroke-linecap="round" opacity="0.2" filter="url(#wcHair)"/><path d="M51.65,690.16 q601.89,5 1203.79,1.97" fill="none" stroke="#0b5c7e" stroke-width="2.79" stroke-linecap="round" opacity="0.14" filter="url(#wcHair)"/><path d="M129.45,697.84 q462.36,3 924.72,-1.86" fill="none" stroke="#0b5c7e" stroke-width="3" stroke-linecap="round" opacity="0.07" filter="url(#wcHair)"/><path d="M733.71,708.05 q341.08,5.75 682.16,1.28" fill="none" stroke="#0b5c7e" stroke-width="3.41" stroke-linecap="round" opacity="0.29" filter="url(#wcHair)"/><path d="M199.63,713.6 q402.74,5.13 805.49,-1.83" fill="none" stroke="#0b5c7e" stroke-width="2.19" stroke-linecap="round" opacity="0.19" filter="url(#wcHair)"/><path d="M586.65,727.97 q319.58,3.85 639.16,-1.72" fill="none" stroke="#0b5c7e" stroke-width="4.91" stroke-linecap="round" opacity="0.23" filter="url(#wcHair)"/><path d="M855.9,737.25 q403.61,5.01 807.21,1.2" fill="none" stroke="#0b5c7e" stroke-width="4.6" stroke-linecap="round" opacity="0.13" filter="url(#wcHair)"/><path d="M1099.49,743.72 q261.5,3.7 523,1.49" fill="none" stroke="#0b5c7e" stroke-width="4.41" stroke-linecap="round" opacity="0.13" filter="url(#wcHair)"/><path d="M504.95,434.69 q183.82,5.28 367.65,-0.28" fill="none" stroke="#ffffff" stroke-width="2.67" stroke-linecap="round" opacity="0.1" filter="url(#wcHair)"/><path d="M601.48,451.24 q355.3,4.3 710.61,-1.99" fill="none" stroke="#ffffff" stroke-width="4.69" stroke-linecap="round" opacity="0.06" filter="url(#wcHair)"/><path d="M132.27,466.72 q395.54,2.95 791.08,0.02" fill="none" stroke="#ffffff" stroke-width="2.71" stroke-linecap="round" opacity="0.19" filter="url(#wcHair)"/><path d="M566.58,475.68 q328.44,2.06 656.88,1.26" fill="none" stroke="#ffffff" stroke-width="5.35" stroke-linecap="round" opacity="0.12" filter="url(#wcHair)"/><path d="M210.64,491.54 q373.22,4.64 746.45,0.48" fill="none" stroke="#ffffff" stroke-width="2.67" stroke-linecap="round" opacity="0.27" filter="url(#wcHair)"/><path d="M413.76,508.67 q532.32,5.5 1064.64,1.05" fill="none" stroke="#ffffff" stroke-width="3.97" stroke-linecap="round" opacity="0.29" filter="url(#wcHair)"/><path d="M298.13,524.01 q529.76,2.77 1059.52,-0.25" fill="none" stroke="#ffffff" stroke-width="2.56" stroke-linecap="round" opacity="0.39" filter="url(#wcHair)"/><path d="M215.25,536.61 q539.2,6.2 1078.41,-1.28" fill="none" stroke="#ffffff" stroke-width="2.64" stroke-linecap="round" opacity="0.12" filter="url(#wcHair)"/><path d="M462.56,550.52 q294.28,3.46 588.56,-0.62" fill="none" stroke="#ffffff" stroke-width="5.29" stroke-linecap="round" opacity="0.4" filter="url(#wcHair)"/><path d="M77.14,567.51 q380.62,4.87 761.23,0.91" fill="none" stroke="#ffffff" stroke-width="3.75" stroke-linecap="round" opacity="0.27" filter="url(#wcHair)"/><path d="M127.41,576.64 q551.85,6.43 1103.7,1.24" fill="none" stroke="#ffffff" stroke-width="4.63" stroke-linecap="round" opacity="0.17" filter="url(#wcHair)"/><path d="M367.11,592.27 q387.21,5.79 774.42,1.25" fill="none" stroke="#ffffff" stroke-width="5.06" stroke-linecap="round" opacity="0.44" filter="url(#wcHair)"/><path d="M723.71,604.93 q180.12,3.27 360.25,-1.77" fill="none" stroke="#ffffff" stroke-width="2.52" stroke-linecap="round" opacity="0.34" filter="url(#wcHair)"/><path d="M753.85,620.15 q182.37,5.44 364.73,-1.66" fill="none" stroke="#ffffff" stroke-width="2.42" stroke-linecap="round" opacity="0.26" filter="url(#wcHair)"/><path d="M1117.57,638.82 q329.38,2.73 658.76,0.54" fill="none" stroke="#ffffff" stroke-width="3.77" stroke-linecap="round" opacity="0.37" filter="url(#wcHair)"/><path d="M331.81,653.48 q279.53,1.95 559.07,-1.28" fill="none" stroke="#ffffff" stroke-width="1.67" stroke-linecap="round" opacity="0.41" filter="url(#wcHair)"/><path d="M660.03,663.18 q291.73,5.94 583.47,1.82" fill="none" stroke="#ffffff" stroke-width="3.88" stroke-linecap="round" opacity="0.06" filter="url(#wcHair)"/><path d="M582.81,680.47 q439.33,5.07 878.67,-1.32" fill="none" stroke="#ffffff" stroke-width="2.61" stroke-linecap="round" opacity="0.3" filter="url(#wcHair)"/><path d="M524.72,691.34 q544.79,4.51 1089.58,-1.48" fill="none" stroke="#ffffff" stroke-width="4.91" stroke-linecap="round" opacity="0.17" filter="url(#wcHair)"/><path d="M59.9,709.36 q237.25,2.6 474.5,0.97" fill="none" stroke="#ffffff" stroke-width="3.08" stroke-linecap="round" opacity="0.22" filter="url(#wcHair)"/><path d="M426.66,574.77 q34.83,2.9 69.67,-0.08" fill="none" stroke="#ffffff" stroke-width="4.39" stroke-linecap="round" opacity="0.71" filter="url(#wcHair)"/><path d="M481.19,549.46 q11.58,2.95 23.16,-0.09" fill="none" stroke="#ffffff" stroke-width="2.63" stroke-linecap="round" opacity="0.78" filter="url(#wcHair)"/><path d="M455.23,589.43 q15.03,1.67 30.07,-0.25" fill="none" stroke="#ffffff" stroke-width="3.53" stroke-linecap="round" opacity="0.32" filter="url(#wcHair)"/><path d="M577.48,721.55 q21.39,3.31 42.79,-0.94" fill="none" stroke="#ffffff" stroke-width="4.65" stroke-linecap="round" opacity="0.39" filter="url(#wcHair)"/><path d="M514.43,640.83 q35.24,1.74 70.49,-1.29" fill="none" stroke="#ffffff" stroke-width="1.88" stroke-linecap="round" opacity="0.38" filter="url(#wcHair)"/><path d="M464.64,505.08 q19.71,3.49 39.43,1.36" fill="none" stroke="#ffffff" stroke-width="2.27" stroke-linecap="round" opacity="0.37" filter="url(#wcHair)"/><path d="M340.92,708.24 q12.91,2.74 25.82,-0.05" fill="none" stroke="#ffffff" stroke-width="4.51" stroke-linecap="round" opacity="0.29" filter="url(#wcHair)"/><path d="M376.12,687.13 q8.17,2.64 16.35,0.24" fill="none" stroke="#ffffff" stroke-width="4.97" stroke-linecap="round" opacity="0.35" filter="url(#wcHair)"/><path d="M452.7,454.76 q16.39,2.82 32.77,1.45" fill="none" stroke="#ffffff" stroke-width="3.28" stroke-linecap="round" opacity="0.42" filter="url(#wcHair)"/><path d="M503.74,519.92 q18.1,1.34 36.21,-0.32" fill="none" stroke="#ffffff" stroke-width="3.5" stroke-linecap="round" opacity="0.45" filter="url(#wcHair)"/><path d="M489.8,615 q17.44,1.62 34.87,-0.96" fill="none" stroke="#ffffff" stroke-width="2.29" stroke-linecap="round" opacity="0.56" filter="url(#wcHair)"/><path d="M524.05,541.42 q12.81,3.1 25.62,0.95" fill="none" stroke="#ffffff" stroke-width="2.06" stroke-linecap="round" opacity="0.52" filter="url(#wcHair)"/><path d="M444.82,481.89 q8.14,1.67 16.29,1.5" fill="none" stroke="#ffffff" stroke-width="4.65" stroke-linecap="round" opacity="0.46" filter="url(#wcHair)"/><path d="M442.63,482.26 q14.94,1.74 29.88,-0.62" fill="none" stroke="#ffffff" stroke-width="3.11" stroke-linecap="round" opacity="0.59" filter="url(#wcHair)"/><path d="M447.31,559.84 q35.07,2.17 70.15,-1.17" fill="none" stroke="#ffffff" stroke-width="4.82" stroke-linecap="round" opacity="0.75" filter="url(#wcHair)"/><path d="M479.93,442.23 q12.51,2.98 25.02,0.42" fill="none" stroke="#ffffff" stroke-width="4.38" stroke-linecap="round" opacity="0.59" filter="url(#wcHair)"/><path d="M465.87,431.86 q16.4,2.22 32.81,0.27" fill="none" stroke="#ffffff" stroke-width="2.69" stroke-linecap="round" opacity="0.55" filter="url(#wcHair)"/><path d="M528.98,671.36 q31.7,2.94 63.4,-1.3" fill="none" stroke="#ffffff" stroke-width="2.45" stroke-linecap="round" opacity="0.32" filter="url(#wcHair)"/><path d="M445,662.18 q44.24,3.46 88.48,-1.41" fill="none" stroke="#ffffff" stroke-width="3.78" stroke-linecap="round" opacity="0.28" filter="url(#wcHair)"/><path d="M469.44,456.84 q20.06,1.06 40.12,0.42" fill="none" stroke="#ffffff" stroke-width="4.02" stroke-linecap="round" opacity="0.62" filter="url(#wcHair)"/><path d="M546.73,698.24 q42.75,1.44 85.5,0.93" fill="none" stroke="#ffffff" stroke-width="2.06" stroke-linecap="round" opacity="0.46" filter="url(#wcHair)"/><path d="M469.78,491.81 q23.06,1.43 46.11,-0.69" fill="none" stroke="#ffffff" stroke-width="4.95" stroke-linecap="round" opacity="0.39" filter="url(#wcHair)"/><path d="M552.53,612.78 q11.19,1.07 22.38,0.58" fill="none" stroke="#ffffff" stroke-width="1.54" stroke-linecap="round" opacity="0.64" filter="url(#wcHair)"/><path d="M588.3,724.49 q37.3,1.21 74.61,0.78" fill="none" stroke="#ffffff" stroke-width="3.76" stroke-linecap="round" opacity="0.41" filter="url(#wcHair)"/><path d="M371.09,655.31 q37.2,2.87 74.4,-1.02" fill="none" stroke="#ffffff" stroke-width="4.82" stroke-linecap="round" opacity="0.29" filter="url(#wcHair)"/><path d="M472.29,466.91 q15.59,1.89 31.17,-1.1" fill="none" stroke="#ffffff" stroke-width="2.61" stroke-linecap="round" opacity="0.35" filter="url(#wcHair)"/><path d="M473.91,606.84 q12.55,2.76 25.1,-1.33" fill="none" stroke="#ffffff" stroke-width="4.86" stroke-linecap="round" opacity="0.34" filter="url(#wcHair)"/><path d="M562.72,644.26 q31.85,2.71 63.7,-0.32" fill="none" stroke="#ffffff" stroke-width="1.51" stroke-linecap="round" opacity="0.67" filter="url(#wcHair)"/><path d="M497.9,507.48 q22.03,2.69 44.05,0.45" fill="none" stroke="#ffffff" stroke-width="3.74" stroke-linecap="round" opacity="0.79" filter="url(#wcHair)"/><path d="M425.68,566 q29.87,3.24 59.74,0.69" fill="none" stroke="#ffffff" stroke-width="2.18" stroke-linecap="round" opacity="0.53" filter="url(#wcHair)"/><path d="M436.02,534.12 q17.44,1.16 34.88,1.09" fill="none" stroke="#ffffff" stroke-width="2.06" stroke-linecap="round" opacity="0.46" filter="url(#wcHair)"/><path d="M423.38,727.8 q35.68,1.56 71.36,-0.06" fill="none" stroke="#ffffff" stroke-width="3.47" stroke-linecap="round" opacity="0.41" filter="url(#wcHair)"/><path d="M480.78,462.52 q17.17,2.69 34.34,-0.37" fill="none" stroke="#ffffff" stroke-width="2.25" stroke-linecap="round" opacity="0.63" filter="url(#wcHair)"/><path d="M466.58,475.32 q9.14,1.37 18.29,0.59" fill="none" stroke="#ffffff" stroke-width="3.56" stroke-linecap="round" opacity="0.73" filter="url(#wcHair)"/><clipPath id="rockClip"><path d="M980,700 L1004,520 L1028,392 L1062,300 L1104,224 L1168,168 L1246,146 L1320,168 L1402,132 L1490,178 L1592,150 L1700,196 L1840,168 L1840,700 Z"/></clipPath><path d="M980,700 L1004,520 L1028,392 L1062,300 L1104,224 L1168,168 L1246,146 L1320,168 L1402,132 L1490,178 L1592,150 L1700,196 L1840,168 L1840,700 Z" fill="url(#gLand)" filter="url(#wcMid)"/><g clip-path="url(#rockClip)"><path d="M1803.08,156.53 L1839.09,174.53 L1945.26,760 L1909.25,760 Z" fill="#8f6a38" opacity="0.29" filter="url(#wcMid)"/><path d="M1733.53,288.73 L1769.52,306.73 L1822.98,760 L1786.99,760 Z" fill="#8f6a38" opacity="0.3" filter="url(#wcMid)"/><path d="M1839.7,192.2 L1870.86,210.2 L1920.6,760 L1889.44,760 Z" fill="#8f6a38" opacity="0.34" filter="url(#wcMid)"/><path d="M1500.98,319.27 L1556.68,337.27 L1638.14,760 L1582.44,760 Z" fill="#8f6a38" opacity="0.2" filter="url(#wcMid)"/><path d="M1202.69,357.41 L1251.67,375.41 L1331.03,760 L1282.05,760 Z" fill="#8f6a38" opacity="0.26" filter="url(#wcMid)"/><path d="M1786.38,310.69 L1840.77,328.69 L1897.33,760 L1842.94,760 Z" fill="#8f6a38" opacity="0.16" filter="url(#wcMid)"/><path d="M1072.32,212.79 L1110.57,230.79 L1185.07,760 L1146.82,760 Z" fill="#8f6a38" opacity="0.29" filter="url(#wcMid)"/><path d="M1255.48,198.91 L1305.81,216.91 L1345.98,760 L1295.65,760 Z" fill="#8f6a38" opacity="0.16" filter="url(#wcMid)"/><path d="M1680.68,346.03 L1699.15,364.03 L1799.12,760 L1780.65,760 Z" fill="#8f6a38" opacity="0.19" filter="url(#wcMid)"/><path d="M1359.78,154.31 L1376.88,172.31 L1442.86,760 L1425.77,760 Z" fill="#8f6a38" opacity="0.26" filter="url(#wcMid)"/><path d="M1519.23,172.7 L1551.58,190.7 L1620.22,760 L1587.88,760 Z" fill="#8f6a38" opacity="0.29" filter="url(#wcMid)"/><path d="M1677.69,326.8 L1709.15,344.8 L1750.91,760 L1719.45,760 Z" fill="#8f6a38" opacity="0.15" filter="url(#wcMid)"/><path d="M1690.85,151.51 L1740.91,169.51 L1772.84,760 L1722.78,760 Z" fill="#8f6a38" opacity="0.19" filter="url(#wcMid)"/><path d="M1770.53,220.2 L1788.04,238.2 L1821.14,760 L1803.63,760 Z" fill="#8f6a38" opacity="0.3" filter="url(#wcMid)"/><path d="M1591.05,333.89 L1613.96,351.89 L1689.82,760 L1666.91,760 Z" fill="#8f6a38" opacity="0.23" filter="url(#wcMid)"/><path d="M1056.72,336.94 L1099.69,354.94 L1198.31,760 L1155.34,760 Z" fill="#8f6a38" opacity="0.15" filter="url(#wcMid)"/><path d="M1190.15,146.79 L1221.41,164.79 L1300.86,760 L1269.59,760 Z" fill="#8f6a38" opacity="0.26" filter="url(#wcMid)"/><path d="M1121.58,147.41 L1154.29,165.41 L1195.66,760 L1162.95,760 Z" fill="#8f6a38" opacity="0.27" filter="url(#wcMid)"/><path d="M1186.72,297.29 L1232.4,315.29 L1319.24,760 L1273.57,760 Z" fill="#8f6a38" opacity="0.25" filter="url(#wcMid)"/><path d="M1465.4,350.68 L1491.26,368.68 L1597.12,760 L1571.26,760 Z" fill="#8f6a38" opacity="0.32" filter="url(#wcMid)"/><path d="M1045.07,176.42 L1096.46,194.42 L1139.95,760 L1088.57,760 Z" fill="#8f6a38" opacity="0.28" filter="url(#wcMid)"/><path d="M1388.78,191.6 L1432.96,209.6 L1551.31,760 L1507.13,760 Z" fill="#8f6a38" opacity="0.25" filter="url(#wcMid)"/><path d="M1106.91,160.9 L1152.19,182.9 L1190.98,700 L1145.7,700 Z" fill="#f9e3ad" opacity="0.28" filter="url(#wcMid)"/><path d="M1278.4,190.8 L1300.54,212.8 L1349.65,700 L1327.51,700 Z" fill="#f9e3ad" opacity="0.3" filter="url(#wcMid)"/><path d="M1175.62,306.63 L1212.56,328.63 L1297.76,700 L1260.81,700 Z" fill="#f9e3ad" opacity="0.14" filter="url(#wcMid)"/><path d="M1407.88,175.98 L1438.47,197.98 L1493.4,700 L1462.81,700 Z" fill="#f9e3ad" opacity="0.29" filter="url(#wcMid)"/><path d="M1412.96,338.66 L1430.49,360.66 L1467.16,700 L1449.63,700 Z" fill="#f9e3ad" opacity="0.18" filter="url(#wcMid)"/><path d="M1346.04,278.3 L1399.23,300.3 L1484.27,700 L1431.08,700 Z" fill="#f9e3ad" opacity="0.28" filter="url(#wcMid)"/><path d="M1186.62,250.92 L1212.84,272.92 L1297.15,700 L1270.93,700 Z" fill="#f9e3ad" opacity="0.16" filter="url(#wcMid)"/><path d="M1376.03,223.81 L1412.99,245.81 L1492.33,700 L1455.36,700 Z" fill="#f9e3ad" opacity="0.29" filter="url(#wcMid)"/><path d="M1718.87,316.27 L1735.79,338.27 L1821.17,700 L1804.25,700 Z" fill="#f9e3ad" opacity="0.18" filter="url(#wcMid)"/><path d="M1563.55,256.77 L1584.52,278.77 L1618.28,700 L1597.31,700 Z" fill="#f9e3ad" opacity="0.24" filter="url(#wcMid)"/><path d="M1615.43,154.73 L1635.27,176.73 L1671.31,700 L1651.46,700 Z" fill="#f9e3ad" opacity="0.2" filter="url(#wcMid)"/><path d="M1725.74,219.17 L1760.77,241.17 L1821.36,700 L1786.33,700 Z" fill="#f9e3ad" opacity="0.24" filter="url(#wcMid)"/><path d="M1054.22,167.78 L1086.98,189.78 L1140.13,700 L1107.37,700 Z" fill="#f9e3ad" opacity="0.22" filter="url(#wcMid)"/><path d="M1777.95,180.19 L1801.16,202.19 L1881.08,700 L1857.87,700 Z" fill="#f9e3ad" opacity="0.21" filter="url(#wcMid)"/><path d="M980,700 L1004,520 L1028,392 L1062,300 L1104,224 L1168,168 L1210,240 L1150,420 L1104,700 Z" fill="#546f9c" opacity="0.34" filter="url(#wcMid)"/><path d="M990.97,567.25 q276.33,9.54 552.66,6.62" fill="none" stroke="#8f6a38" stroke-width="1.61" opacity="0.27" stroke-linecap="round" filter="url(#wcHair)"/><path d="M1431.61,519.33 q124.52,18.11 249.05,0.23" fill="none" stroke="#8f6a38" stroke-width="4.65" opacity="0.2" stroke-linecap="round" filter="url(#wcHair)"/><path d="M1229.48,325.86 q260.35,6.38 520.69,1.06" fill="none" stroke="#8f6a38" stroke-width="4.29" opacity="0.18" stroke-linecap="round" filter="url(#wcHair)"/><path d="M1329.54,502.1 q248.76,21.47 497.52,2.84" fill="none" stroke="#8f6a38" stroke-width="1.87" opacity="0.28" stroke-linecap="round" filter="url(#wcHair)"/><path d="M982.95,249.8 q197.54,15.9 395.08,-3.81" fill="none" stroke="#8f6a38" stroke-width="4.15" opacity="0.29" stroke-linecap="round" filter="url(#wcHair)"/><path d="M1219.7,306.63 q245.66,8.71 491.32,-0.91" fill="none" stroke="#8f6a38" stroke-width="1.61" opacity="0.22" stroke-linecap="round" filter="url(#wcHair)"/><path d="M1418.67,480.63 q244.07,8.74 488.14,-1.94" fill="none" stroke="#8f6a38" stroke-width="2.03" opacity="0.19" stroke-linecap="round" filter="url(#wcHair)"/><path d="M1343.09,431.85 q218.53,18.18 437.05,-0.45" fill="none" stroke="#8f6a38" stroke-width="3.98" opacity="0.23" stroke-linecap="round" filter="url(#wcHair)"/><path d="M1077.11,518.46 q79.18,11.99 158.37,5.76" fill="none" stroke="#8f6a38" stroke-width="5.43" opacity="0.27" stroke-linecap="round" filter="url(#wcHair)"/><path d="M1295.36,328.55 q119.36,18.9 238.71,-6.75" fill="none" stroke="#8f6a38" stroke-width="1.85" opacity="0.27" stroke-linecap="round" filter="url(#wcHair)"/><path d="M1314.57,327.62 q173.4,20.69 346.79,-6.97" fill="none" stroke="#8f6a38" stroke-width="2.39" opacity="0.21" stroke-linecap="round" filter="url(#wcHair)"/><path d="M1049.91,378.25 q91.59,19.55 183.18,6.84" fill="none" stroke="#8f6a38" stroke-width="5.54" opacity="0.21" stroke-linecap="round" filter="url(#wcHair)"/><path d="M1363.75,542.81 q282.9,12.29 565.79,2.59" fill="none" stroke="#8f6a38" stroke-width="4.73" opacity="0.15" stroke-linecap="round" filter="url(#wcHair)"/><path d="M1375.46,359.41 q154.23,15.7 308.46,-6.78" fill="none" stroke="#8f6a38" stroke-width="2.52" opacity="0.29" stroke-linecap="round" filter="url(#wcHair)"/><path d="M1196.88,355.05 q110.44,8.1 220.87,5.75" fill="none" stroke="#8f6a38" stroke-width="3.68" opacity="0.13" stroke-linecap="round" filter="url(#wcHair)"/><path d="M987.31,342.2 q157.66,7.11 315.31,-4.41" fill="none" stroke="#8f6a38" stroke-width="5.53" opacity="0.27" stroke-linecap="round" filter="url(#wcHair)"/><path d="M1151.31,505.01 q180.56,7.18 361.12,6.2" fill="none" stroke="#8f6a38" stroke-width="5.11" opacity="0.23" stroke-linecap="round" filter="url(#wcHair)"/><path d="M1318.94,421.89 q217.26,10.7 434.52,0.39" fill="none" stroke="#8f6a38" stroke-width="2.19" opacity="0.21" stroke-linecap="round" filter="url(#wcHair)"/><path d="M1333.29,250.62 q146.48,15.66 292.96,3.23" fill="none" stroke="#8f6a38" stroke-width="2.13" opacity="0.11" stroke-linecap="round" filter="url(#wcHair)"/><path d="M1267.47,503.57 q200.5,17.37 401,2.43" fill="none" stroke="#8f6a38" stroke-width="3.94" opacity="0.22" stroke-linecap="round" filter="url(#wcHair)"/><ellipse cx="1420" cy="300" rx="340" ry="130" fill="#f9e3ad" opacity="0.34" filter="url(#wcBig)"/><path d="M960,600 H1860 V710 H960 Z" fill="#5c4526" opacity="0.4" filter="url(#wcMid)"/></g><path d="M1099.96,336 q93.28,-12.72 186.56,2.12 l-31.8,61.48 q-61.48,14.84 -122.96,2.12 Z" fill="#8f6a38" opacity="0.5" filter="url(#wcFine)"/><path d="M1123.28,336 H1237.76 L1225.04,372.04 H1133.88 Z" fill="#c9b795" opacity="0.6" filter="url(#wcFine)"/><path d="M1136,299.96 H1178.4 V336 H1136 Z" fill="#fdf8ec" opacity="0.88" filter="url(#wcFine)"/><path d="M1136,299.96 H1150.42 V336 H1136 Z" fill="#c9b795" opacity="0.3" filter="url(#wcFine)"/><path d="M1132,299.96 L1157.2,285.54 L1182.4,299.96 Z" fill="#c0472c" opacity="0.82" filter="url(#wcFine)"/><path d="M1132,299.96 L1157.2,285.54" fill="none" stroke="#7d2c18" stroke-width="2" opacity="0.5" filter="url(#wcHair)"/><path d="M1144.73,317.51 v-4.24 a2.12,2.12 0 0 1 4.24,0 v4.24 Z" fill="#2b3b46" opacity="0.44" filter="url(#wcHair)"/><path d="M1157.2,317.51 v-4.24 a2.12,2.12 0 0 1 4.24,0 v4.24 Z" fill="#2b3b46" opacity="0.45" filter="url(#wcHair)"/><path d="M1169.67,317.51 v-4.24 a2.12,2.12 0 0 1 4.24,0 v4.24 Z" fill="#2b3b46" opacity="0.36" filter="url(#wcHair)"/><path d="M1144.73,330.49 v-4.24 a2.12,2.12 0 0 1 4.24,0 v4.24 Z" fill="#2b3b46" opacity="0.48" filter="url(#wcHair)"/><path d="M1157.2,330.49 v-4.24 a2.12,2.12 0 0 1 4.24,0 v4.24 Z" fill="#2b3b46" opacity="0.5" filter="url(#wcHair)"/><path d="M1169.67,330.49 v-4.24 a2.12,2.12 0 0 1 4.24,0 v4.24 Z" fill="#2b3b46" opacity="0.5" filter="url(#wcHair)"/><path d="M1176.28,287.24 H1208.08 V329.64 H1176.28 Z" fill="#fdf8ec" opacity="0.88" filter="url(#wcFine)"/><path d="M1176.28,287.24 H1187.09 V329.64 H1176.28 Z" fill="#c9b795" opacity="0.3" filter="url(#wcFine)"/><path d="M1172.28,287.24 L1192.18,276.43 L1212.08,287.24 Z" fill="#c0472c" opacity="0.82" filter="url(#wcFine)"/><path d="M1172.28,287.24 L1192.18,276.43" fill="none" stroke="#7d2c18" stroke-width="2" opacity="0.5" filter="url(#wcHair)"/><path d="M1185.56,306.96 v-4.24 a2.12,2.12 0 0 1 4.24,0 v4.24 Z" fill="#2b3b46" opacity="0.38" filter="url(#wcHair)"/><path d="M1198.81,306.96 v-4.24 a2.12,2.12 0 0 1 4.24,0 v4.24 Z" fill="#2b3b46" opacity="0.5" filter="url(#wcHair)"/><path d="M1185.56,322.22 v-4.24 a2.12,2.12 0 0 1 4.24,0 v4.24 Z" fill="#2b3b46" opacity="0.36" filter="url(#wcHair)"/><path d="M1198.81,322.22 v-4.24 a2.12,2.12 0 0 1 4.24,0 v4.24 Z" fill="#2b3b46" opacity="0.39" filter="url(#wcHair)"/><path d="M1205.96,308.44 H1233.52 V340.24 H1205.96 Z" fill="#fdf8ec" opacity="0.88" filter="url(#wcFine)"/><path d="M1205.96,308.44 H1215.33 V340.24 H1205.96 Z" fill="#c9b795" opacity="0.3" filter="url(#wcFine)"/><path d="M1201.96,308.44 L1219.74,299.07 L1237.52,308.44 Z" fill="#c0472c" opacity="0.82" filter="url(#wcFine)"/><path d="M1201.96,308.44 L1219.74,299.07" fill="none" stroke="#7d2c18" stroke-width="2" opacity="0.5" filter="url(#wcHair)"/><path d="M1214,324.55 v-4.24 a2.12,2.12 0 0 1 4.24,0 v4.24 Z" fill="#2b3b46" opacity="0.44" filter="url(#wcHair)"/><path d="M1225.48,324.55 v-4.24 a2.12,2.12 0 0 1 4.24,0 v4.24 Z" fill="#2b3b46" opacity="0.52" filter="url(#wcHair)"/><path d="M1214,336 v-4.24 a2.12,2.12 0 0 1 4.24,0 v4.24 Z" fill="#2b3b46" opacity="0.49" filter="url(#wcHair)"/><path d="M1225.48,336 v-4.24 a2.12,2.12 0 0 1 4.24,0 v4.24 Z" fill="#2b3b46" opacity="0.47" filter="url(#wcHair)"/><path d="M1150.84,272.4 H1174.16 V304.2 H1150.84 Z" fill="#fdf8ec" opacity="0.88" filter="url(#wcFine)"/><path d="M1150.84,272.4 H1158.77 V304.2 H1150.84 Z" fill="#c9b795" opacity="0.3" filter="url(#wcFine)"/><path d="M1146.84,272.4 L1162.5,264.47 L1178.16,272.4 Z" fill="#c0472c" opacity="0.82" filter="url(#wcFine)"/><path d="M1146.84,272.4 L1162.5,264.47" fill="none" stroke="#7d2c18" stroke-width="2" opacity="0.5" filter="url(#wcHair)"/><path d="M1157.64,288.51 v-4.24 a2.12,2.12 0 0 1 4.24,0 v4.24 Z" fill="#2b3b46" opacity="0.4" filter="url(#wcHair)"/><path d="M1167.36,288.51 v-4.24 a2.12,2.12 0 0 1 4.24,0 v4.24 Z" fill="#2b3b46" opacity="0.34" filter="url(#wcHair)"/><path d="M1157.64,299.96 v-4.24 a2.12,2.12 0 0 1 4.24,0 v4.24 Z" fill="#2b3b46" opacity="0.4" filter="url(#wcHair)"/><path d="M1167.36,299.96 v-4.24 a2.12,2.12 0 0 1 4.24,0 v4.24 Z" fill="#2b3b46" opacity="0.4" filter="url(#wcHair)"/><path d="M1167.8,251.2 H1185.82 V329.64 H1167.8 Z" fill="#fdf8ec" opacity="0.92" filter="url(#wcFine)"/><path d="M1167.8,251.2 H1174.11 V329.64 H1167.8 Z" fill="#c9b795" opacity="0.28" filter="url(#wcFine)"/><path d="M1163.8,251.2 L1176.81,245.07 L1189.82,251.2 Z" fill="#c0472c" opacity="0.82" filter="url(#wcFine)"/><path d="M1163.8,251.2 L1176.81,245.07" fill="none" stroke="#7d2c18" stroke-width="2" opacity="0.5" filter="url(#wcHair)"/><path d="M1242,331.76 C1233.52,304.2 1237.76,276.64 1243.06,268.16 C1248.36,276.64 1252.6,304.2 1244.12,331.76 Z" fill="#27452f" opacity="0.78" filter="url(#wcFine)"/><path d="M1499.6,232 q52.8,-7.2 105.6,1.2 l-18,34.8 q-34.8,8.4 -69.6,1.2 Z" fill="#8f6a38" opacity="0.5" filter="url(#wcFine)"/><path d="M1512.8,232 H1577.6 L1570.4,252.4 H1518.8 Z" fill="#c9b795" opacity="0.6" filter="url(#wcFine)"/><path d="M1520,211.6 H1544 V232 H1520 Z" fill="#fdf8ec" opacity="0.88" filter="url(#wcFine)"/><path d="M1520,211.6 H1528.16 V232 H1520 Z" fill="#c9b795" opacity="0.3" filter="url(#wcFine)"/><path d="M1516,211.6 L1532,203.44 L1548,211.6 Z" fill="#c0472c" opacity="0.82" filter="url(#wcFine)"/><path d="M1516,211.6 L1532,203.44" fill="none" stroke="#7d2c18" stroke-width="2" opacity="0.5" filter="url(#wcHair)"/><path d="M1524.94,221.54 v-2.4 a1.2,1.2 0 0 1 2.4,0 v2.4 Z" fill="#2b3b46" opacity="0.48" filter="url(#wcHair)"/><path d="M1532,221.54 v-2.4 a1.2,1.2 0 0 1 2.4,0 v2.4 Z" fill="#2b3b46" opacity="0.47" filter="url(#wcHair)"/><path d="M1539.06,221.54 v-2.4 a1.2,1.2 0 0 1 2.4,0 v2.4 Z" fill="#2b3b46" opacity="0.41" filter="url(#wcHair)"/><path d="M1524.94,228.88 v-2.4 a1.2,1.2 0 0 1 2.4,0 v2.4 Z" fill="#2b3b46" opacity="0.43" filter="url(#wcHair)"/><path d="M1532,228.88 v-2.4 a1.2,1.2 0 0 1 2.4,0 v2.4 Z" fill="#2b3b46" opacity="0.51" filter="url(#wcHair)"/><path d="M1539.06,228.88 v-2.4 a1.2,1.2 0 0 1 2.4,0 v2.4 Z" fill="#2b3b46" opacity="0.47" filter="url(#wcHair)"/><path d="M1542.8,204.4 H1560.8 V228.4 H1542.8 Z" fill="#fdf8ec" opacity="0.88" filter="url(#wcFine)"/><path d="M1542.8,204.4 H1548.92 V228.4 H1542.8 Z" fill="#c9b795" opacity="0.3" filter="url(#wcFine)"/><path d="M1538.8,204.4 L1551.8,198.28 L1564.8,204.4 Z" fill="#c0472c" opacity="0.82" filter="url(#wcFine)"/><path d="M1538.8,204.4 L1551.8,198.28" fill="none" stroke="#7d2c18" stroke-width="2" opacity="0.5" filter="url(#wcHair)"/><path d="M1548.05,215.56 v-2.4 a1.2,1.2 0 0 1 2.4,0 v2.4 Z" fill="#2b3b46" opacity="0.46" filter="url(#wcHair)"/><path d="M1555.55,215.56 v-2.4 a1.2,1.2 0 0 1 2.4,0 v2.4 Z" fill="#2b3b46" opacity="0.48" filter="url(#wcHair)"/><path d="M1548.05,224.2 v-2.4 a1.2,1.2 0 0 1 2.4,0 v2.4 Z" fill="#2b3b46" opacity="0.49" filter="url(#wcHair)"/><path d="M1555.55,224.2 v-2.4 a1.2,1.2 0 0 1 2.4,0 v2.4 Z" fill="#2b3b46" opacity="0.43" filter="url(#wcHair)"/><path d="M1559.6,216.4 H1575.2 V234.4 H1559.6 Z" fill="#fdf8ec" opacity="0.88" filter="url(#wcFine)"/><path d="M1559.6,216.4 H1564.9 V234.4 H1559.6 Z" fill="#c9b795" opacity="0.3" filter="url(#wcFine)"/><path d="M1555.6,216.4 L1567.4,211.1 L1579.2,216.4 Z" fill="#c0472c" opacity="0.82" filter="url(#wcFine)"/><path d="M1555.6,216.4 L1567.4,211.1" fill="none" stroke="#7d2c18" stroke-width="2" opacity="0.5" filter="url(#wcHair)"/><path d="M1564.15,225.52 v-2.4 a1.2,1.2 0 0 1 2.4,0 v2.4 Z" fill="#2b3b46" opacity="0.53" filter="url(#wcHair)"/><path d="M1570.65,225.52 v-2.4 a1.2,1.2 0 0 1 2.4,0 v2.4 Z" fill="#2b3b46" opacity="0.53" filter="url(#wcHair)"/><path d="M1564.15,232 v-2.4 a1.2,1.2 0 0 1 2.4,0 v2.4 Z" fill="#2b3b46" opacity="0.43" filter="url(#wcHair)"/><path d="M1570.65,232 v-2.4 a1.2,1.2 0 0 1 2.4,0 v2.4 Z" fill="#2b3b46" opacity="0.37" filter="url(#wcHair)"/><path d="M1528.4,196 H1541.6 V214 H1528.4 Z" fill="#fdf8ec" opacity="0.88" filter="url(#wcFine)"/><path d="M1528.4,196 H1532.89 V214 H1528.4 Z" fill="#c9b795" opacity="0.3" filter="url(#wcFine)"/><path d="M1524.4,196 L1535,191.51 L1545.6,196 Z" fill="#c0472c" opacity="0.82" filter="url(#wcFine)"/><path d="M1524.4,196 L1535,191.51" fill="none" stroke="#7d2c18" stroke-width="2" opacity="0.5" filter="url(#wcHair)"/><path d="M1532.25,205.12 v-2.4 a1.2,1.2 0 0 1 2.4,0 v2.4 Z" fill="#2b3b46" opacity="0.53" filter="url(#wcHair)"/><path d="M1537.75,205.12 v-2.4 a1.2,1.2 0 0 1 2.4,0 v2.4 Z" fill="#2b3b46" opacity="0.4" filter="url(#wcHair)"/><path d="M1532.25,211.6 v-2.4 a1.2,1.2 0 0 1 2.4,0 v2.4 Z" fill="#2b3b46" opacity="0.54" filter="url(#wcHair)"/><path d="M1537.75,211.6 v-2.4 a1.2,1.2 0 0 1 2.4,0 v2.4 Z" fill="#2b3b46" opacity="0.41" filter="url(#wcHair)"/><path d="M1538,184 H1548.2 V228.4 H1538 Z" fill="#fdf8ec" opacity="0.92" filter="url(#wcFine)"/><path d="M1538,184 H1541.57 V228.4 H1538 Z" fill="#c9b795" opacity="0.28" filter="url(#wcFine)"/><path d="M1534,184 L1543.1,180.53 L1552.2,184 Z" fill="#c0472c" opacity="0.82" filter="url(#wcFine)"/><path d="M1534,184 L1543.1,180.53" fill="none" stroke="#7d2c18" stroke-width="2" opacity="0.5" filter="url(#wcHair)"/><path d="M1580,229.6 C1575.2,214 1577.6,198.4 1580.6,193.6 C1583.6,198.4 1586,214 1581.2,229.6 Z" fill="#27452f" opacity="0.78" filter="url(#wcFine)"/><ellipse cx="1505.33" cy="597.82" rx="20.28" ry="11.97" fill="#9aa855" opacity="0.17908764080144465" filter="url(#wcBig)"/><ellipse cx="1165.69" cy="330.02" rx="27.98" ry="19.66" fill="#5f7a3f" opacity="0.21259254127740862" filter="url(#wcBig)"/><ellipse cx="1209.27" cy="272.96" rx="25.41" ry="15.83" fill="#5f7a3f" opacity="0.22420277939178052" filter="url(#wcBig)"/><ellipse cx="1272.04" cy="535.11" rx="20.29" ry="8.08" fill="#9aa855" opacity="0.34345598545856776" filter="url(#wcBig)"/><ellipse cx="1357.19" cy="242.98" rx="51.19" ry="13.18" fill="#9aa855" opacity="0.22719946158118548" filter="url(#wcBig)"/><ellipse cx="1025.55" cy="489.29" rx="27.08" ry="13.58" fill="#5f7a3f" opacity="0.22558167524635792" filter="url(#wcBig)"/><ellipse cx="1417.55" cy="469.9" rx="40.78" ry="18.93" fill="#9aa855" opacity="0.19534024595282973" filter="url(#wcBig)"/><ellipse cx="1113.44" cy="461.14" rx="42.37" ry="14.19" fill="#9aa855" opacity="0.3206910729315132" filter="url(#wcBig)"/><ellipse cx="1717.96" cy="587.04" rx="39.41" ry="13.12" fill="#9aa855" opacity="0.3509345101565123" filter="url(#wcBig)"/><ellipse cx="1111.56" cy="500.28" rx="33.63" ry="7.71" fill="#5f7a3f" opacity="0.31468118097633124" filter="url(#wcBig)"/><ellipse cx="1215.39" cy="547.15" rx="36.79" ry="7.15" fill="#5f7a3f" opacity="0.16652085836045444" filter="url(#wcBig)"/><ellipse cx="1362.56" cy="351.93" rx="37.87" ry="15.91" fill="#9aa855" opacity="0.24588197687640787" filter="url(#wcBig)"/><ellipse cx="1255.81" cy="422.82" rx="50.28" ry="15.46" fill="#5f7a3f" opacity="0.28347478102892637" filter="url(#wcBig)"/><ellipse cx="1215.66" cy="226.24" rx="21.22" ry="8.72" fill="#5f7a3f" opacity="0.3257703639008105" filter="url(#wcBig)"/><ellipse cx="1108.48" cy="407.99" rx="33.07" ry="7.38" fill="#9aa855" opacity="0.25728721510618924" filter="url(#wcBig)"/><ellipse cx="1604.1" cy="507.73" rx="35.29" ry="11.7" fill="#5f7a3f" opacity="0.24259140928275885" filter="url(#wcBig)"/><ellipse cx="1677.62" cy="248.68" rx="53.12" ry="13.75" fill="#9aa855" opacity="0.28245000801049175" filter="url(#wcBig)"/><ellipse cx="1677.83" cy="491.73" rx="56.5" ry="16.29" fill="#5f7a3f" opacity="0.31384991802275186" filter="url(#wcBig)"/><ellipse cx="1123.86" cy="424.99" rx="31.14" ry="13.86" fill="#9aa855" opacity="0.21967011810280385" filter="url(#wcBig)"/><ellipse cx="1712.66" cy="501.01" rx="47.8" ry="16.29" fill="#5f7a3f" opacity="0.2631380907632411" filter="url(#wcBig)"/><path d="M1281.86,430 C1278.6,396.7 1283.49,369.32 1290,356 C1296.51,369.32 1301.4,396.7 1298.14,430 Z" fill="#27452f" opacity="0.7" filter="url(#wcFine)"/><path d="M1653.18,320 C1650.45,292.1 1654.54,269.16 1660,258 C1665.46,269.16 1669.55,292.1 1666.82,320 Z" fill="#27452f" opacity="0.6" filter="url(#wcFine)"/><path d="M960,648 q90,14 190,4 q160,-10 330,8 q180,12 360,-4" fill="none" stroke="#ffffff" stroke-width="13" opacity="0.85" filter="url(#wcFine)"/><ellipse cx="1120" cy="656" rx="150" ry="22" fill="#ffffff" opacity="0.6" filter="url(#wcBig)"/><rect width="1800" height="760" filter="url(#grain)" opacity="0.1" style="mix-blend-mode:multiply"/></svg>